<svg version="1.1" id="Layer_1" xmlns="http://www.w3.org/2000/svg" x="0" y="0" viewBox="0 0 176.1 56.69" xml:space="preserve"><path d="M126.29 26.91c1.88 2.54 2.21 5.71 2.46 8.92l.07 3.89c.02 1.29.02 2.57-.04 3.83-.11 2.52-.44 4.97-1.26 7.26-.23.65-.78 1.39-1.47 1.64l-1.37.13c-.43.04-.87.07-1.41.03l-.08-26.53h.87c.3.01.59.01.87.04.55.07 1.04.26 1.36.79zm6.31.82c-1.19-2.63-3.38-4.42-5.49-4.42-1.81-.12-3.61-.09-5.42-.04l-2.72.06c-.91.01-1.82.01-2.74-.02 0 0-.76.08-.9.66-.19.81.27 1.15.81 1.49l.41.26.38.3c.23.22.4.5.44.89l.08 25.46c-.09.3-.27.5-.48.67l-.33.22-.35.19c-.46.25-.88.53-.88 1.21.1.39.39.86.82.98l11.54-.08c1.62-.2 3.03-1.29 4.01-2.7 3.82-7 3.99-17.76.82-25.13zm35.85-.66c1.85 3.86 1.8 12.91 1.42 19.33-.33 3.09-.65 5.94-2.48 5.96-1.21.17-1.76-.59-2.21-1.39-.87-1.8-1.31-3.78-1.54-5.84-.12-1.03-.19-2.09-.23-3.15l-.11-3.21.05-1.56.03-1.6c.01-1.08.04-2.16.12-3.22.16-2.11.55-4.1 1.6-5.66 1.07-1 2.79-.77 3.35.34zm5.41-.49c-1.9-4.12-6.28-4.91-9.99-3.76-4.03 1.33-5.51 5.59-6.14 9.25-.67 6.73-.92 14.74 2.54 20.47 2.07 3.17 6.89 3.59 9.91 2.78 2.11-.61 3.54-2.32 4.58-5.32 1.04-1.88 2.64-15.73-.9-23.42zm-61.4-2.21c-.11-.67-.78-.99-1.56-.99h-7.93c-2.77 0-5.6.02-8.28.09l-.55.26c-.18.11-.32.25-.35.47-.14.39-.12.9.33 1.15 1.24.34 1.63 1.21 1.75 2.24l.04.8v.82c0 .54.01 1.08.09 1.56V52.3c-.11.65-.59.95-1.06 1.23l-.35.22-.32.24c-.19.18-.34.39-.4.69.06.57.28.99 1.07 1.15l15.88-.17c.83-.03 1.56-.12 1.72-.82 0 0-.02-5.84-.08-8.76-.01-.61-.57-.65-.57-.65-.49-.04-.71.37-.9.74-.16 2.62-.59 5.71-3.44 6.63h-5.9V41.4l.91-.06c.34-.03.7-.05 1.05-.03.71.03 1.39.21 1.81.83.28.21.41.5.5.81l.08.49.05.5c.06.66.18 1.27.93 1.47.25-.04.39-.19.49-.38l.13-.3.12-.3s-.02-6.77-.08-10.07c-.01-.53-.27-.84-.42-.87-.39-.08-.87.25-.97.54l-.13.69-.1.7c-.08.46-.18.91-.42 1.31-.39.72-1.04.97-1.75 1.04-.36.03-.74.03-1.11.01l-1.07-.07V26.09l1.6.01 1.61-.02c1.07-.01 2.12.03 3.09.26 1.76.78 2.29 2.64 2.7 4.26.05.27.07.54.08.81l.05.78c.05.5.17.97.53 1.36.43.49.88.05 1.07-.49l.06-8.69zm-39.05-.82l-1.91-.05-2.05-.03c-1.38 0-2.75.05-3.9.25-.61.14-.83.83-.75 1.13.05.19.21.37.42.53l.74.49c.52.33 1.02.69 1.06 1.21 0 0 .59 15.28.33 25.05-.02.69-.57 1.06-.57 1.06-.14.15-.32.27-.51.38l-.57.34c-.36.24-.63.55-.55 1.08.17.37.55.86.98.9l7.7-.08c1.35-.75 1.02-1.25.35-1.75l-.55-.38-.56-.41c-.35-.28-.61-.6-.64-.99l-.25-19.4.16-.16 1.25 4.84 1.31 4.81c.88 3.21 1.74 6.42 2.51 9.68l.59 2.07c.19.66.38 1.2.56 1.36.29.14.49.16.74-.08.13-.21.88-4.01 1.79-8.69l2.72-14.07.08.08.08 18.66-.17 1.23c-.29.47-.7.9-1.23 1.06-.45.31-.94.74-.74 1.39.18.37.57.57.9.74h7.78l.49-.25c.83-.86.47-1.31-.13-1.72l-.49-.3-.48-.32c-.3-.23-.55-.5-.62-.85l-.08-25.54c.09-.3.26-.52.47-.69l.33-.23.35-.21c.46-.27.88-.57.9-1.24-.08-.39-.33-.84-.82-.9 0 0-6.4-.04-8.1 0-.5.01-.66.57-.66.57-.55 2.23-1 4.51-1.44 6.79l-.68 3.42-.74 3.38c-.03.31-.09.59-.17.88l-.24.84-3.6-14.57c-.24-.59-.74-1.16-1.39-1.31zm-14.57 1.31l-1.1-.54-1.09-.53c-.74-.33-1.49-.61-2.31-.73-3.01-.55-5.67.59-7.37 3.11-2.21 2.83-1.47 7.39 0 10.32.94 2.31 2.76 3.6 4.62 4.82l1.39.92c.46.31.9.64 1.33.98.85.7 1.6 1.5 2.16 2.53.8 2.06 1.74 5.09-.16 6.96-.92 1.21-2.46 1.45-3.85 1.06-3.11-.74-4.25-3.93-4.91-6.63-.05-.27-.07-.54-.08-.79l-.03-.71c-.04-.43-.16-.77-.54-.96-.46-.22-1.01.12-1.06.49v9.99c.14.39.43.68.82.82.29-.04.61-.37.66-.65.06-.43.51-.96 1.06-.74 1.6.88 3.28 1.58 5.08 1.96 1.96.02 4.03-.23 5.73-1.06 3.54-2.29 4.11-6.43 3.6-10.4-.08-2.97-1.74-4.83-3.82-6.42l-1.62-1.16-1.67-1.13c-1.1-.76-2.16-1.56-3.04-2.5-1.82-1.76-2.68-4.32-1.8-6.79.34-.77.93-1.12 1.62-1.29.34-.08.71-.11 1.07-.12l1.08.01c2.93.45 4.42 3.66 5.07 6.14.08.31.11.65.12.99l.03.5.05.48c.1.61.34 1.1 1.11 1.22.19-.06.29-.14.36-.24l.13-.33c.1-3.3.19-6.98-.08-10.32-.09-.42-.37-.78-.9-.57l-.28.28c-.07.1-.13.24-.21.54-.21.49-.7.54-1.17.49zM8.23 2.74V1.7l.36-.02c.55 0 .74.27.74.54 0 .38-.34.52-.74.52h-.36zm10.41 20.98c-.96.14-2.07.14-2.87-.33.02-.98.24-1.88.66-2.7l1.23 1.43c.41.5.77 1.03.98 1.6zM8.76.09h-.01c-1.5 0-2.71 1.22-2.71 2.75 0 1.55 1.22 2.75 2.71 2.75 1.51 0 2.71-1.2 2.71-2.75-.01-1.53-1.2-2.75-2.7-2.75zm-.01.42h.01c1.22 0 2.19 1.04 2.19 2.33s-.97 2.32-2.19 2.31c-1.22 0-2.21-1.02-2.21-2.33.01-1.27.99-2.31 2.2-2.31zm-.51 3.92V3.11h.34c.39 0 .58.15.66.54.06.4.14.68.21.78h.51c-.06-.1-.13-.28-.2-.76-.06-.45-.24-.69-.51-.74V2.9c.33-.1.59-.34.59-.74 0-.29-.09-.5-.28-.64-.18-.13-.48-.22-.95-.22-.36 0-.61.03-.86.07v3.06h.49zm13.19-.28c-.12-.34-.37-.57-.65-.74l-.45-.23-.46-.18c-2.19-.1-4.54-.1-5.65 1.88-.12 1.49-1.06 2.08-2.21 2.38l-.9.19-.91.16c-.62.09-1.21.2-1.71.39L6.41 9.34c-.69.45-1.37.93-2.01 1.52-.92 1.76-1.49 3.66-2.04 5.57-.44.83-.46 1.73-.37 2.65l.18 1.38c.06.46.11.92.11 1.37C.68 25.02.31 28.73.07 32.47l1.63 1.31c-.05.86-.01 1.73.06 2.61l.1 1.32.08 1.31c-.33.88-.41 1.96-.25 2.95l-.47 1.02c-.15.34-.3.69-.41 1.05-.23.72-.34 1.47-.19 2.28.13 1.45.11 2.92.03 4.36l-.27 4.24c.05.7.31.95 1 1.04.34.05.79.05 1.37.06l.98.01 1.2.03.13-.56c.96.15 1.94.25 2.93.33l2.96.24c.27-.06.56-.07.85-.08l.88-.02c.58-.03 1.12-.14 1.55-.56.14-.38.07-.64-.05-.86l-.18-.31c-.05-.1-.09-.2-.1-.3l.81.01c.27 0 .53-.01.79-.05.51-.08.98-.26 1.35-.69-.38-1.15-1.24-1.78-2.24-2.22-.5-.22-1.04-.4-1.57-.57-.52-.17-1.04-.35-1.51-.56.03-.74-.07-1.44-.2-2.12l-.21-1-.17-.97c1.17-1.09 1.28-2.45 1.18-3.91l-.19-2.23c-.04-.75-.03-1.49.15-2.21l3.44-.17.33-1.15c1.72-.08 3.19.37 4.58 1.06 1.39 1.02 2.99 2.37 2.78 4.26l-.5.85c-.18.27-.4.5-.73.63-.17.12-.37.2-.58.27l-.62.18c-.41.12-.79.26-1.01.62l-.41 11.05c5.09 1.96 12.07 2.31 17.19.16-.34-1.8-.58-3.64-.82-5.48l-.38-2.76c-.13-.92-.27-1.83-.44-2.73l-.43-.06-.39-.11c-1.19-.51-1.7-1.76-1.8-2.95.14-.3.38-.56.64-.78l.83-.61c.54-.34 1.15-.37 1.77-.35l.93.03c.31 0 .61-.02.9-.09.93-.47.88-1.15.73-1.88l-.1-.58-.08-.57c-.02-.38.04-.75.29-1.09-.12-.49-.35-1.06-.9-1.23-.53-.1-1.09-.11-1.66-.1l-.86.03-.85.01c-1.12-.02-2.17-.21-2.93-1.08H18.89c-.21.55-.71.71-1.28.74l-.87-.01c-.29-.01-.56-.02-.8.01.25-.78.19-1.58.09-2.37L15.9 30c-.03-.39-.03-.76.03-1.13 1.92.12 3.93-.12 5.65-.74.65.35 1.31.67 2.13.65.27-.51.63-.54 1.03-.45l.6.19c.2.06.4.11.58.1l-.3.54-.27.56c-.14.38-.17.78.07 1.19.6-.03 1.23 0 1.86.04l1.9.13.16-.16c.04-1.07-.08-2-.28-2.91l-.34-1.35-.37-1.4c-.37.18-.65.47-.92.79l-.39.48-.4.46c-.79.13-.95-.19-.98-.64v-.73c-.01-.25-.04-.49-.16-.68-.35-.76-1.15-1.15-1.88-1.31-.31-.8-.73-1.55-1.18-2.29l-1.36-2.22c-.14-.2-.24-.41-.33-.63l-.23-.67c-.16-.45-.35-.89-.75-1.23l.23-.51.2-.53c.11-.36.17-.74.09-1.17l-.24-.39-.26-.42c-.14-.28-.19-.56.09-.83.36.02.65-.14.92-.36l.72-.7c1.15-1.02 1.29-2.34 1.06-3.69-.12-.67-.32-1.35-.54-2l-.34-.95-.27-.89zM153.18 39c-.64-.49-1.28-.72-1.88-.74.47-.17.86-.39 1.31-.74 2.37-2.72 2.29-7.39 1.15-10.64-.76-1.74-2.58-3.31-4.42-3.68l-12.11-.08c-.37.02-.7.13-.98.41-.61.88-.22 1.3.37 1.67l.46.28.46.31c.29.22.52.48.6.85l.25 24.72c.1.72-.28 1.18-.77 1.57l-.77.55c-.26.18-.49.37-.67.58-.16.64-.13 1.15.66 1.31 4.36.22 10.08.19 13.83-.08 2.47-.47 4.24-3.03 4.75-5.32.71-3.76.71-8.3-2.24-10.97zm-8.14-13.01c.52 0 1.03.01 1.51.09.96.15 1.8.57 2.29 1.63 1.6 2.15 1.04 5.63 0 7.86-.33.86-1.17 1.18-2.16 1.28-.5.05-1.03.05-1.56.02l-1.52-.08-.08-10.81h1.52zm4.62 24.15c-.39 1.14-.72 1.56-1.47 2.04-.6.26-1.36.32-2.15.31l-1.2-.06-1.16-.08-.08-11.63.74.02.76-.01.76-.01.75.02c.98.07 1.88.32 2.56 1.13 1.63 2.25.7 7.5.49 8.27z" fill="#1d1d1b"/></svg>